{
	"patcher" : 	{
		"fileversion" : 1,
		"appversion" : 		{
			"major" : 8,
			"minor" : 1,
			"revision" : 2,
			"architecture" : "x64",
			"modernui" : 1
		}
,
		"classnamespace" : "box",
		"rect" : [ 488.0, 161.0, 676.0, 698.0 ],
		"bglocked" : 0,
		"openinpresentation" : 1,
		"default_fontsize" : 10.0,
		"default_fontface" : 0,
		"default_fontname" : "Arial",
		"gridonopen" : 1,
		"gridsize" : [ 15.0, 15.0 ],
		"gridsnaponopen" : 1,
		"objectsnaponopen" : 1,
		"statusbarvisible" : 2,
		"toolbarvisible" : 1,
		"lefttoolbarpinned" : 0,
		"toptoolbarpinned" : 0,
		"righttoolbarpinned" : 0,
		"bottomtoolbarpinned" : 0,
		"toolbars_unpinned_last_save" : 0,
		"tallnewobj" : 0,
		"boxanimatetime" : 200,
		"enablehscroll" : 1,
		"enablevscroll" : 1,
		"devicewidth" : 0.0,
		"description" : "",
		"digest" : "",
		"tags" : "",
		"style" : "",
		"subpatcher_template" : "",
		"globalpatchername" : "TfmNodePath",
		"boxes" : [ 			{
				"box" : 				{
					"id" : "obj-32",
					"maxclass" : "newobj",
					"numinlets" : 1,
					"numoutlets" : 1,
					"outlettype" : [ "" ],
					"patching_rect" : [ 223.119049000000018, 394.56109600000002, 80.0, 20.0 ],
					"text" : "sprintf %s_draw"
				}

			}
, 			{
				"box" : 				{
					"id" : "obj-30",
					"maxclass" : "newobj",
					"numinlets" : 1,
					"numoutlets" : 1,
					"outlettype" : [ "" ],
					"patching_rect" : [ 223.119049000000018, 426.56109600000002, 89.0, 20.0 ],
					"text" : "prepend drawpath"
				}

			}
, 			{
				"box" : 				{
					"comment" : "",
					"id" : "obj-28",
					"index" : 0,
					"maxclass" : "inlet",
					"numinlets" : 0,
					"numoutlets" : 1,
					"outlettype" : [ "" ],
					"patching_rect" : [ 498.305542000000003, 9.788696, 25.0, 25.0 ]
				}

			}
, 			{
				"box" : 				{
					"id" : "obj-31",
					"maxclass" : "comment",
					"numinlets" : 1,
					"numoutlets" : 0,
					"patching_rect" : [ 604.0, 314.0, 90.0, 18.0 ],
					"text" : "< fix for animation"
				}

			}
, 			{
				"box" : 				{
					"id" : "obj-27",
					"maxclass" : "newobj",
					"numinlets" : 1,
					"numoutlets" : 2,
					"outlettype" : [ "float", "bang" ],
					"patching_rect" : [ 516.333374000000049, 278.56109600000002, 84.5, 20.0 ],
					"text" : "t f b"
				}

			}
, 			{
				"box" : 				{
					"id" : "obj-23",
					"maxclass" : "newobj",
					"numinlets" : 2,
					"numoutlets" : 1,
					"outlettype" : [ "" ],
					"patcher" : 					{
						"fileversion" : 1,
						"appversion" : 						{
							"major" : 8,
							"minor" : 1,
							"revision" : 2,
							"architecture" : "x64",
							"modernui" : 1
						}
,
						"classnamespace" : "box",
						"rect" : [ 59.0, 104.0, 640.0, 480.0 ],
						"bglocked" : 0,
						"openinpresentation" : 0,
						"default_fontsize" : 12.0,
						"default_fontface" : 0,
						"default_fontname" : "Arial",
						"gridonopen" : 1,
						"gridsize" : [ 15.0, 15.0 ],
						"gridsnaponopen" : 1,
						"objectsnaponopen" : 1,
						"statusbarvisible" : 2,
						"toolbarvisible" : 1,
						"lefttoolbarpinned" : 0,
						"toptoolbarpinned" : 0,
						"righttoolbarpinned" : 0,
						"bottomtoolbarpinned" : 0,
						"toolbars_unpinned_last_save" : 0,
						"tallnewobj" : 0,
						"boxanimatetime" : 200,
						"enablehscroll" : 1,
						"enablevscroll" : 1,
						"devicewidth" : 0.0,
						"description" : "",
						"digest" : "",
						"tags" : "",
						"style" : "",
						"subpatcher_template" : "",
						"boxes" : [ 							{
								"box" : 								{
									"id" : "obj-10",
									"maxclass" : "newobj",
									"numinlets" : 2,
									"numoutlets" : 2,
									"outlettype" : [ "bang", "" ],
									"patching_rect" : [ 64.0, 195.0, 34.0, 22.0 ],
									"text" : "sel 0"
								}

							}
, 							{
								"box" : 								{
									"id" : "obj-32",
									"maxclass" : "message",
									"numinlets" : 2,
									"numoutlets" : 1,
									"outlettype" : [ "" ],
									"patching_rect" : [ 64.0, 233.0, 189.0, 22.0 ],
									"text" : "direction 0. 0. 1., rotatexyz 0. 0. 0."
								}

							}
, 							{
								"box" : 								{
									"id" : "obj-9",
									"maxclass" : "newobj",
									"numinlets" : 2,
									"numoutlets" : 1,
									"outlettype" : [ "" ],
									"patching_rect" : [ 278.0, 195.0, 34.0, 22.0 ],
									"text" : "gate"
								}

							}
, 							{
								"box" : 								{
									"id" : "obj-8",
									"maxclass" : "newobj",
									"numinlets" : 2,
									"numoutlets" : 2,
									"outlettype" : [ "", "" ],
									"patching_rect" : [ 152.0, 149.0, 101.0, 22.0 ],
									"text" : "route orient2path"
								}

							}
, 							{
								"box" : 								{
									"id" : "obj-7",
									"maxclass" : "newobj",
									"numinlets" : 2,
									"numoutlets" : 2,
									"outlettype" : [ "", "" ],
									"patching_rect" : [ 37.0, 114.0, 134.0, 22.0 ],
									"text" : "routepass inherit_scale"
								}

							}
, 							{
								"box" : 								{
									"id" : "obj-21",
									"maxclass" : "newobj",
									"numinlets" : 2,
									"numoutlets" : 2,
									"outlettype" : [ "", "" ],
									"patching_rect" : [ 37.0, 74.0, 124.0, 22.0 ],
									"text" : "route transformations"
								}

							}
, 							{
								"box" : 								{
									"fontname" : "Verdana",
									"fontsize" : 12.0,
									"id" : "obj-41",
									"maxclass" : "newobj",
									"numinlets" : 1,
									"numoutlets" : 1,
									"outlettype" : [ "" ],
									"patching_rect" : [ 278.0, 319.0, 116.0, 23.0 ],
									"text" : "prepend direction"
								}

							}
, 							{
								"box" : 								{
									"fontname" : "Verdana",
									"fontsize" : 12.0,
									"id" : "obj-43",
									"maxclass" : "newobj",
									"numinlets" : 2,
									"numoutlets" : 1,
									"outlettype" : [ "" ],
									"patching_rect" : [ 278.0, 289.0, 100.0, 23.0 ],
									"text" : "vexpr $f1-$f2"
								}

							}
, 							{
								"box" : 								{
									"fontname" : "Verdana",
									"fontsize" : 12.0,
									"id" : "obj-16",
									"maxclass" : "newobj",
									"numinlets" : 1,
									"numoutlets" : 3,
									"outlettype" : [ "", "", "" ],
									"patching_rect" : [ 278.0, 253.0, 62.0, 23.0 ],
									"text" : "t l l l"
								}

							}
, 							{
								"box" : 								{
									"fontname" : "Verdana",
									"fontsize" : 12.0,
									"id" : "obj-15",
									"maxclass" : "newobj",
									"numinlets" : 2,
									"numoutlets" : 2,
									"outlettype" : [ "", "" ],
									"patching_rect" : [ 278.0, 223.0, 100.0, 23.0 ],
									"text" : "route position"
								}

							}
, 							{
								"box" : 								{
									"comment" : "",
									"id" : "obj-5",
									"index" : 2,
									"maxclass" : "inlet",
									"numinlets" : 0,
									"numoutlets" : 1,
									"outlettype" : [ "" ],
									"patching_rect" : [ 293.0, 31.0, 30.0, 30.0 ]
								}

							}
, 							{
								"box" : 								{
									"comment" : "",
									"id" : "obj-4",
									"index" : 1,
									"maxclass" : "outlet",
									"numinlets" : 1,
									"numoutlets" : 0,
									"patching_rect" : [ 37.0, 398.0, 30.0, 30.0 ]
								}

							}
, 							{
								"box" : 								{
									"comment" : "",
									"id" : "obj-2",
									"index" : 1,
									"maxclass" : "inlet",
									"numinlets" : 0,
									"numoutlets" : 1,
									"outlettype" : [ "" ],
									"patching_rect" : [ 37.0, 24.0, 30.0, 30.0 ]
								}

							}
 ],
						"lines" : [ 							{
								"patchline" : 								{
									"destination" : [ "obj-32", 0 ],
									"source" : [ "obj-10", 0 ]
								}

							}
, 							{
								"patchline" : 								{
									"destination" : [ "obj-16", 0 ],
									"source" : [ "obj-15", 0 ]
								}

							}
, 							{
								"patchline" : 								{
									"destination" : [ "obj-43", 0 ],
									"source" : [ "obj-16", 1 ]
								}

							}
, 							{
								"patchline" : 								{
									"destination" : [ "obj-43", 1 ],
									"source" : [ "obj-16", 0 ]
								}

							}
, 							{
								"patchline" : 								{
									"destination" : [ "obj-21", 0 ],
									"source" : [ "obj-2", 0 ]
								}

							}
, 							{
								"patchline" : 								{
									"destination" : [ "obj-7", 0 ],
									"source" : [ "obj-21", 0 ]
								}

							}
, 							{
								"patchline" : 								{
									"destination" : [ "obj-4", 0 ],
									"source" : [ "obj-32", 0 ]
								}

							}
, 							{
								"patchline" : 								{
									"destination" : [ "obj-4", 0 ],
									"source" : [ "obj-41", 0 ]
								}

							}
, 							{
								"patchline" : 								{
									"destination" : [ "obj-41", 0 ],
									"source" : [ "obj-43", 0 ]
								}

							}
, 							{
								"patchline" : 								{
									"destination" : [ "obj-4", 0 ],
									"order" : 1,
									"source" : [ "obj-5", 0 ]
								}

							}
, 							{
								"patchline" : 								{
									"destination" : [ "obj-9", 1 ],
									"order" : 0,
									"source" : [ "obj-5", 0 ]
								}

							}
, 							{
								"patchline" : 								{
									"destination" : [ "obj-4", 0 ],
									"source" : [ "obj-7", 0 ]
								}

							}
, 							{
								"patchline" : 								{
									"destination" : [ "obj-8", 0 ],
									"source" : [ "obj-7", 1 ]
								}

							}
, 							{
								"patchline" : 								{
									"destination" : [ "obj-10", 0 ],
									"order" : 1,
									"source" : [ "obj-8", 0 ]
								}

							}
, 							{
								"patchline" : 								{
									"destination" : [ "obj-9", 0 ],
									"order" : 0,
									"source" : [ "obj-8", 0 ]
								}

							}
, 							{
								"patchline" : 								{
									"destination" : [ "obj-15", 0 ],
									"source" : [ "obj-9", 0 ]
								}

							}
 ],
						"styles" : [ 							{
								"name" : "AudioStatus_Menu",
								"default" : 								{
									"bgfillcolor" : 									{
										"type" : "color",
										"color" : [ 0.294118, 0.313726, 0.337255, 1 ],
										"color1" : [ 0.454902, 0.462745, 0.482353, 0.0 ],
										"color2" : [ 0.290196, 0.309804, 0.301961, 1.0 ],
										"angle" : 270.0,
										"proportion" : 0.39,
										"autogradient" : 0
									}

								}
,
								"parentstyle" : "",
								"multi" : 0
							}
, 							{
								"name" : "STYLE1",
								"parentstyle" : "",
								"multi" : 0
							}
, 							{
								"name" : "jpatcher001",
								"parentstyle" : "",
								"multi" : 0
							}
 ]
					}
,
					"patching_rect" : [ 318.833344000000011, 522.56109600000002, 83.0, 20.0 ],
					"saved_object_attributes" : 					{
						"description" : "",
						"digest" : "",
						"globalpatchername" : "",
						"tags" : ""
					}
,
					"text" : "p transformation"
				}

			}
, 			{
				"box" : 				{
					"fontname" : "Arial",
					"fontsize" : 10.0,
					"id" : "obj-25",
					"maxclass" : "comment",
					"numinlets" : 1,
					"numoutlets" : 0,
					"patching_rect" : [ 462.585082999999997, 248.234435999999988, 43.0, 18.0 ],
					"presentation" : 1,
					"presentation_rect" : [ 0.0, 98.0, 45.0, 18.0 ],
					"text" : "playbar",
					"textcolor" : [ 0.238637998700142, 0.238637998700142, 0.238637998700142, 1.0 ]
				}

			}
, 			{
				"box" : 				{
					"id" : "obj-36",
					"maxclass" : "newobj",
					"numinlets" : 1,
					"numoutlets" : 1,
					"outlettype" : [ "" ],
					"patching_rect" : [ 516.333374000000049, 306.0, 68.0, 20.0 ],
					"text" : "prepend eval"
				}

			}
, 			{
				"box" : 				{
					"floatoutput" : 1,
					"hint" : "playbar (0....1) {/sparck/node ::<nodename>::property::playbar <float>}",
					"id" : "obj-24",
					"knobshape" : 5,
					"maxclass" : "slider",
					"numinlets" : 1,
					"numoutlets" : 1,
					"outlettype" : [ "" ],
					"parameter_enable" : 0,
					"patching_rect" : [ 516.333374000000049, 248.234435999999988, 146.0, 17.070435 ],
					"presentation" : 1,
					"presentation_rect" : [ 57.0, 96.0, 122.25, 20.0 ],
					"size" : 1.0,
					"varname" : "playbar"
				}

			}
, 			{
				"box" : 				{
					"fontname" : "Arial",
					"fontsize" : 10.0,
					"id" : "obj-16",
					"maxclass" : "comment",
					"numinlets" : 1,
					"numoutlets" : 0,
					"patching_rect" : [ 604.0, 499.56109600000002, 49.0, 18.0 ],
					"presentation" : 1,
					"presentation_rect" : [ 0.0, 76.0, 49.0, 18.0 ],
					"text" : "segment",
					"textcolor" : [ 0.238637998700142, 0.238637998700142, 0.238637998700142, 1.0 ]
				}

			}
, 			{
				"box" : 				{
					"fontname" : "Arial",
					"fontsize" : 10.0,
					"id" : "obj-14",
					"maxclass" : "comment",
					"numinlets" : 1,
					"numoutlets" : 0,
					"patching_rect" : [ 638.444396999999981, 189.990661999999986, 39.0, 18.0 ],
					"presentation" : 1,
					"presentation_rect" : [ 0.0, 53.0, 23.0, 18.0 ],
					"text" : "file",
					"textcolor" : [ 0.238637998700142, 0.238637998700142, 0.238637998700142, 1.0 ]
				}

			}
, 			{
				"box" : 				{
					"id" : "obj-5",
					"maxclass" : "newobj",
					"numinlets" : 1,
					"numoutlets" : 1,
					"outlettype" : [ "" ],
					"patching_rect" : [ 141.083313000000004, 394.56109600000002, 79.0, 20.0 ],
					"text" : "sprintf %s_post"
				}

			}
, 			{
				"box" : 				{
					"id" : "obj-21",
					"maxclass" : "message",
					"numinlets" : 2,
					"numoutlets" : 1,
					"outlettype" : [ "" ],
					"patching_rect" : [ 565.333374000000049, 365.56109600000002, 121.0, 20.0 ],
					"text" : "transformation_bang"
				}

			}
, 			{
				"box" : 				{
					"id" : "obj-20",
					"maxclass" : "newobj",
					"numinlets" : 2,
					"numoutlets" : 2,
					"outlettype" : [ "", "" ],
					"patching_rect" : [ 409.0, 365.56109600000002, 151.0, 20.0 ],
					"text" : "substitute anim animname"
				}

			}
, 			{
				"box" : 				{
					"id" : "obj-52",
					"maxclass" : "newobj",
					"numinlets" : 7,
					"numoutlets" : 5,
					"outlettype" : [ "", "", "", "bang", "" ],
					"patching_rect" : [ 184.61904899999999, 320.56109600000002, 156.0, 20.0 ],
					"text" : "bs.anim.node"
				}

			}
, 			{
				"box" : 				{
					"fontname" : "Arial",
					"fontsize" : 10.0,
					"id" : "obj-39",
					"maxclass" : "comment",
					"numinlets" : 1,
					"numoutlets" : 0,
					"patching_rect" : [ 314.444427000000019, 208.0, 39.0, 18.0 ],
					"presentation" : 1,
					"presentation_rect" : [ 0.0, 32.0, 39.0, 18.0 ],
					"text" : "parent",
					"textcolor" : [ 0.238637998700142, 0.238637998700142, 0.238637998700142, 1.0 ]
				}

			}
, 			{
				"box" : 				{
					"args" : [ "@types", "anim", "@out1", "anim", "@outoff1", "anim", "@out2", "anim_tree_nodes", "><", "@outoff2", "<root>", "@offname", "<none>", "@fontsize", 9, "@presentation_size", 123, 16, "@hint", "parent transform node {/sparck/node ::<nodename>::property::transformnode <name>}" ],
					"bgmode" : 0,
					"border" : 0,
					"clickthrough" : 0,
					"enablehscroll" : 0,
					"enablevscroll" : 0,
					"hint" : "",
					"id" : "obj-7",
					"lockeddragscroll" : 0,
					"maxclass" : "bpatcher",
					"name" : "bs.msg.receive.select.maxpat",
					"numinlets" : 1,
					"numoutlets" : 8,
					"offset" : [ 0.0, 0.0 ],
					"outlettype" : [ "", "", "", "", "", "", "", "" ],
					"patching_rect" : [ 190.0, 208.0, 118.0, 20.0 ],
					"presentation" : 1,
					"presentation_rect" : [ 37.0, 32.0, 144.0, 21.0 ],
					"varname" : "transformnode",
					"viewvisibility" : 1
				}

			}
, 			{
				"box" : 				{
					"id" : "obj-17",
					"maxclass" : "newobj",
					"numinlets" : 1,
					"numoutlets" : 1,
					"outlettype" : [ "" ],
					"patching_rect" : [ 19.25, 569.66570999999999, 75.0, 20.0 ],
					"text" : "prepend name"
				}

			}
, 			{
				"box" : 				{
					"id" : "obj-26",
					"maxclass" : "newobj",
					"numinlets" : 1,
					"numoutlets" : 1,
					"outlettype" : [ "" ],
					"patching_rect" : [ 19.25, 595.66570999999999, 62.0, 20.0 ],
					"text" : "pattrmarker"
				}

			}
, 			{
				"box" : 				{
					"id" : "obj-9",
					"maxclass" : "newobj",
					"numinlets" : 7,
					"numoutlets" : 5,
					"outlettype" : [ "", "", "", "bang", "" ],
					"patching_rect" : [ 141.083313000000004, 564.56109600000002, 156.0, 20.0 ],
					"text" : "bs.anim.node"
				}

			}
, 			{
				"box" : 				{
					"id" : "obj-22",
					"maxclass" : "newobj",
					"numinlets" : 2,
					"numoutlets" : 2,
					"outlettype" : [ "", "" ],
					"patching_rect" : [ 132.0, 206.0, 52.0, 20.0 ],
					"text" : "route title"
				}

			}
, 			{
				"box" : 				{
					"fontface" : 0,
					"fontname" : "Arial",
					"fontsize" : 10.0,
					"id" : "obj-13",
					"maxclass" : "newobj",
					"numinlets" : 3,
					"numoutlets" : 3,
					"outlettype" : [ "", "", "" ],
					"patching_rect" : [ 46.0, 167.211304000000013, 138.0, 20.0 ],
					"text" : "routepass enable setmsgtitle"
				}

			}
, 			{
				"box" : 				{
					"fontface" : 0,
					"fontname" : "Arial",
					"fontsize" : 12.0,
					"id" : "obj-48",
					"maxclass" : "newobj",
					"numinlets" : 4,
					"numoutlets" : 0,
					"patching_rect" : [ 104.583313000000004, 615.333374000000049, 152.0, 22.0 ],
					"text" : "bs.msg.send @types anim"
				}

			}
, 			{
				"box" : 				{
					"id" : "obj-8",
					"linecount" : 3,
					"maxclass" : "newobj",
					"numinlets" : 1,
					"numoutlets" : 2,
					"outlettype" : [ "", "" ],
					"patching_rect" : [ 382.833344000000011, 472.56109600000002, 63.0, 42.0 ],
					"text" : "jit.anim.path @drawto sparck"
				}

			}
, 			{
				"box" : 				{
					"id" : "obj-18",
					"maxclass" : "newobj",
					"numinlets" : 3,
					"numoutlets" : 3,
					"outlettype" : [ "", "", "" ],
					"patching_rect" : [ 382.833344000000011, 445.56109600000002, 192.333313000000004, 20.0 ],
					"text" : "route path segments"
				}

			}
, 			{
				"box" : 				{
					"clickedimage" : 1,
					"hint" : "enable {/sparck/node ::<nodename>::enable <0|1>}",
					"id" : "obj-35",
					"maxclass" : "pictctrl",
					"mode" : 1,
					"name" : "bs.node.logo.power.png",
					"numinlets" : 1,
					"numoutlets" : 1,
					"outlettype" : [ "int" ],
					"parameter_enable" : 0,
					"patching_rect" : [ 0.0, 117.5, 23.0, 23.0 ],
					"presentation" : 1,
					"presentation_rect" : [ 3.0, 9.0, 17.0, 17.0 ],
					"varname" : "enable"
				}

			}
, 			{
				"box" : 				{
					"fontface" : 0,
					"fontname" : "Arial",
					"fontsize" : 12.0,
					"id" : "obj-56",
					"maxclass" : "newobj",
					"numinlets" : 1,
					"numoutlets" : 0,
					"patching_rect" : [ 594.833374000000049, 470.56109600000002, 199.0, 22.0 ],
					"text" : "s bs::app::rc::stage::trigger::manual"
				}

			}
, 			{
				"box" : 				{
					"id" : "obj-2",
					"maxclass" : "newobj",
					"numinlets" : 2,
					"numoutlets" : 1,
					"outlettype" : [ "bang" ],
					"patching_rect" : [ 594.833374000000049, 445.56109600000002, 48.0, 20.0 ],
					"text" : "delay 50"
				}

			}
, 			{
				"box" : 				{
					"id" : "obj-34",
					"maxclass" : "newobj",
					"numinlets" : 2,
					"numoutlets" : 2,
					"outlettype" : [ "", "" ],
					"patching_rect" : [ 469.5, 472.56109600000002, 42.0, 20.0 ],
					"text" : "route 0"
				}

			}
, 			{
				"box" : 				{
					"id" : "obj-33",
					"maxclass" : "newobj",
					"numinlets" : 1,
					"numoutlets" : 1,
					"outlettype" : [ "" ],
					"patching_rect" : [ 469.5, 529.56109600000002, 93.0, 20.0 ],
					"text" : "prepend segments"
				}

			}
, 			{
				"box" : 				{
					"args" : [ 0 ],
					"bgmode" : 0,
					"border" : 0,
					"clickthrough" : 0,
					"enablehscroll" : 0,
					"enablevscroll" : 0,
					"id" : "obj-11",
					"lockeddragscroll" : 0,
					"maxclass" : "bpatcher",
					"name" : "bs.node.tfm.node.path.body.maxpat",
					"numinlets" : 1,
					"numoutlets" : 1,
					"offset" : [ 0.0, 0.0 ],
					"outlettype" : [ "" ],
					"patching_rect" : [ 469.5, 499.56109600000002, 123.333374000000006, 18.0 ],
					"presentation" : 1,
					"presentation_rect" : [ 57.0, 75.0, 123.0, 20.0 ],
					"varname" : "segment",
					"viewvisibility" : 1
				}

			}
, 			{
				"box" : 				{
					"id" : "obj-4",
					"maxclass" : "newobj",
					"numinlets" : 1,
					"numoutlets" : 1,
					"outlettype" : [ "bang" ],
					"patching_rect" : [ 585.444458000000054, 78.561096000000006, 52.0, 20.0 ],
					"text" : "loadbang"
				}

			}
, 			{
				"box" : 				{
					"id" : "obj-10",
					"maxclass" : "newobj",
					"numinlets" : 1,
					"numoutlets" : 4,
					"outlettype" : [ "", "", "", "" ],
					"patching_rect" : [ 382.833344000000011, 414.56109600000002, 337.0, 20.0 ],
					"text" : "mxj com.tecartlab.sparck.anim.path.AnimPath stage"
				}

			}
, 			{
				"box" : 				{
					"id" : "obj-3",
					"maxclass" : "newobj",
					"numinlets" : 1,
					"numoutlets" : 2,
					"outlettype" : [ "", "" ],
					"patching_rect" : [ 64.370361000000003, 67.0, 63.0, 20.0 ],
					"text" : "patcherargs"
				}

			}
, 			{
				"box" : 				{
					"fontname" : "Arial",
					"fontsize" : 10.0,
					"id" : "obj-1",
					"maxclass" : "message",
					"numinlets" : 2,
					"numoutlets" : 1,
					"outlettype" : [ "" ],
					"patching_rect" : [ 144.999985000000009, 67.0, 33.0, 20.0 ],
					"text" : "done"
				}

			}
, 			{
				"box" : 				{
					"color" : [ 1.0, 0.010851, 0.0, 1.0 ],
					"fontname" : "Arial",
					"fontsize" : 12.0,
					"id" : "obj-6",
					"maxclass" : "newobj",
					"numinlets" : 1,
					"numoutlets" : 2,
					"outlettype" : [ "", "" ],
					"patching_rect" : [ 337.5, 16.0, 69.0, 22.0 ],
					"save" : [ "#N", "thispatcher", ";", "#Q", "end", ";" ],
					"text" : "thispatcher",
					"varname" : "vpl_ThisNodePatcher"
				}

			}
, 			{
				"box" : 				{
					"fontface" : 0,
					"fontname" : "Arial",
					"fontsize" : 12.0,
					"id" : "obj-15",
					"maxclass" : "newobj",
					"numinlets" : 1,
					"numoutlets" : 4,
					"outlettype" : [ "", "", "", "" ],
					"patching_rect" : [ 326.666655999999989, 139.561095999999992, 262.0, 22.0 ],
					"text" : "bs.node.tfm.node.path.1.properties @window 1",
					"varname" : "property"
				}

			}
, 			{
				"box" : 				{
					"args" : [ "#2", "#4", 1, "properties", -1, "@hint", "properties" ],
					"bgmode" : 0,
					"border" : 0,
					"clickthrough" : 0,
					"enablehscroll" : 0,
					"enablevscroll" : 0,
					"hint" : "",
					"id" : "obj-12",
					"lockeddragscroll" : 0,
					"maxclass" : "bpatcher",
					"name" : "bs.vpl.util.inlet.maxpat",
					"numinlets" : 1,
					"numoutlets" : 2,
					"offset" : [ 0.0, 0.0 ],
					"outlettype" : [ "", "" ],
					"patching_rect" : [ 267.527739999999994, 16.0, 44.0, 31.0 ],
					"presentation" : 1,
					"presentation_rect" : [ 4.0, 0.0, 10.0, 10.0 ],
					"varname" : "vpl_inlet[1/2]",
					"viewvisibility" : 1
				}

			}
, 			{
				"box" : 				{
					"comment" : "",
					"id" : "obj-44",
					"index" : 0,
					"maxclass" : "inlet",
					"numinlets" : 0,
					"numoutlets" : 1,
					"outlettype" : [ "" ],
					"patching_rect" : [ 237.305542000000003, 16.0, 25.0, 25.0 ]
				}

			}
, 			{
				"box" : 				{
					"args" : [ "native", "boot", "read", "read", "read", "xml", "_assets/_paths/_animations", 1, "@types", "TEXT", "@readonly", 1, "@presentation_size", 123, 20, "@fontsize", 9, "@filepath", 1, "@hint", "path filename (located in ~/_assets/_paths/_animations) {/sparck/node ::<nodename>::path::fileName <string>}" ],
					"bgmode" : 0,
					"border" : 0,
					"clickthrough" : 0,
					"enablehscroll" : 0,
					"enablevscroll" : 0,
					"hint" : "",
					"id" : "obj-99",
					"lockeddragscroll" : 0,
					"maxclass" : "bpatcher",
					"name" : "bs.file.select.maxpat",
					"numinlets" : 1,
					"numoutlets" : 2,
					"offset" : [ 0.0, 0.0 ],
					"outlettype" : [ "", "" ],
					"patching_rect" : [ 418.277770999999973, 187.990661999999986, 204.444457999999997, 20.0 ],
					"presentation" : 1,
					"presentation_rect" : [ 37.0, 53.0, 142.0, 21.0 ],
					"varname" : "path",
					"viewvisibility" : 1
				}

			}
, 			{
				"box" : 				{
					"fontname" : "Arial",
					"fontsize" : 12.0,
					"id" : "obj-43",
					"maxclass" : "newobj",
					"numinlets" : 1,
					"numoutlets" : 4,
					"outlettype" : [ "", "", "", "" ],
					"patching_rect" : [ 163.499985000000009, 9.788696, 59.5, 22.0 ],
					"restore" : 					{
						"enable" : [ 0 ],
						"playbar" : [ 0.0 ]
					}
,
					"text" : "autopattr",
					"varname" : "u048013075"
				}

			}
, 			{
				"box" : 				{
					"args" : [ "#1", "#2", "#3", "#4", "title", "TfmNodePath", "@properties", 1, "@logo", "power", "@help", "TfmNodePath" ],
					"bgmode" : 0,
					"border" : 0,
					"clickthrough" : 1,
					"enablehscroll" : 0,
					"enablevscroll" : 0,
					"id" : "obj-19",
					"lockeddragscroll" : 0,
					"maxclass" : "bpatcher",
					"name" : "bs.vpl.util.nodelogic.maxpat",
					"numinlets" : 4,
					"numoutlets" : 3,
					"offset" : [ 0.0, 0.0 ],
					"outlettype" : [ "", "", "" ],
					"patching_rect" : [ 0.0, 110.0, 211.0, 38.0 ],
					"presentation" : 1,
					"presentation_rect" : [ 0.0, 0.0, 180.0, 29.0 ],
					"varname" : "vpl_nodelogic",
					"viewvisibility" : 1
				}

			}
, 			{
				"box" : 				{
					"angle" : 270.0,
					"bgcolor" : [ 0.7, 0.7, 0.7, 0.8 ],
					"bordercolor" : [ 0.701961, 0.701961, 0.701961, 0.8 ],
					"id" : "obj-29",
					"maxclass" : "panel",
					"mode" : 0,
					"numinlets" : 1,
					"numoutlets" : 0,
					"patching_rect" : [ 0.0, 4.0, 180.0, 116.0 ],
					"presentation" : 1,
					"presentation_rect" : [ 0.0, 4.0, 180.0, 116.0 ],
					"proportion" : 0.39,
					"varname" : "vpl_canvas"
				}

			}
 ],
		"lines" : [ 			{
				"patchline" : 				{
					"destination" : [ "obj-19", 2 ],
					"source" : [ "obj-1", 0 ]
				}

			}
, 			{
				"patchline" : 				{
					"destination" : [ "obj-18", 0 ],
					"source" : [ "obj-10", 0 ]
				}

			}
, 			{
				"patchline" : 				{
					"destination" : [ "obj-2", 0 ],
					"source" : [ "obj-10", 2 ]
				}

			}
, 			{
				"patchline" : 				{
					"destination" : [ "obj-33", 0 ],
					"source" : [ "obj-11", 0 ]
				}

			}
, 			{
				"patchline" : 				{
					"destination" : [ "obj-22", 0 ],
					"source" : [ "obj-13", 2 ]
				}

			}
, 			{
				"patchline" : 				{
					"destination" : [ "obj-48", 0 ],
					"source" : [ "obj-13", 1 ]
				}

			}
, 			{
				"patchline" : 				{
					"destination" : [ "obj-48", 0 ],
					"source" : [ "obj-13", 0 ]
				}

			}
, 			{
				"patchline" : 				{
					"destination" : [ "obj-10", 0 ],
					"midpoints" : [ 579.166655999999989, 226.061095999999992, 392.333344000000011, 226.061095999999992 ],
					"source" : [ "obj-15", 3 ]
				}

			}
, 			{
				"patchline" : 				{
					"destination" : [ "obj-23", 0 ],
					"source" : [ "obj-15", 0 ]
				}

			}
, 			{
				"patchline" : 				{
					"destination" : [ "obj-52", 1 ],
					"source" : [ "obj-15", 1 ]
				}

			}
, 			{
				"patchline" : 				{
					"destination" : [ "obj-99", 0 ],
					"source" : [ "obj-15", 2 ]
				}

			}
, 			{
				"patchline" : 				{
					"destination" : [ "obj-26", 0 ],
					"source" : [ "obj-17", 0 ]
				}

			}
, 			{
				"patchline" : 				{
					"destination" : [ "obj-34", 0 ],
					"source" : [ "obj-18", 1 ]
				}

			}
, 			{
				"patchline" : 				{
					"destination" : [ "obj-8", 0 ],
					"source" : [ "obj-18", 0 ]
				}

			}
, 			{
				"patchline" : 				{
					"destination" : [ "obj-13", 0 ],
					"order" : 1,
					"source" : [ "obj-19", 2 ]
				}

			}
, 			{
				"patchline" : 				{
					"destination" : [ "obj-15", 0 ],
					"order" : 0,
					"source" : [ "obj-19", 2 ]
				}

			}
, 			{
				"patchline" : 				{
					"destination" : [ "obj-35", 0 ],
					"source" : [ "obj-19", 1 ]
				}

			}
, 			{
				"patchline" : 				{
					"destination" : [ "obj-56", 0 ],
					"source" : [ "obj-2", 0 ]
				}

			}
, 			{
				"patchline" : 				{
					"destination" : [ "obj-10", 0 ],
					"source" : [ "obj-20", 0 ]
				}

			}
, 			{
				"patchline" : 				{
					"destination" : [ "obj-10", 0 ],
					"source" : [ "obj-21", 0 ]
				}

			}
, 			{
				"patchline" : 				{
					"destination" : [ "obj-17", 0 ],
					"order" : 3,
					"source" : [ "obj-22", 0 ]
				}

			}
, 			{
				"patchline" : 				{
					"destination" : [ "obj-32", 0 ],
					"order" : 0,
					"source" : [ "obj-22", 0 ]
				}

			}
, 			{
				"patchline" : 				{
					"destination" : [ "obj-5", 0 ],
					"order" : 2,
					"source" : [ "obj-22", 0 ]
				}

			}
, 			{
				"patchline" : 				{
					"destination" : [ "obj-52", 0 ],
					"order" : 1,
					"source" : [ "obj-22", 0 ]
				}

			}
, 			{
				"patchline" : 				{
					"destination" : [ "obj-9", 1 ],
					"source" : [ "obj-23", 0 ]
				}

			}
, 			{
				"patchline" : 				{
					"destination" : [ "obj-27", 0 ],
					"source" : [ "obj-24", 0 ]
				}

			}
, 			{
				"patchline" : 				{
					"destination" : [ "obj-21", 0 ],
					"source" : [ "obj-27", 1 ]
				}

			}
, 			{
				"patchline" : 				{
					"destination" : [ "obj-36", 0 ],
					"source" : [ "obj-27", 0 ]
				}

			}
, 			{
				"patchline" : 				{
					"destination" : [ "obj-19", 2 ],
					"source" : [ "obj-3", 1 ]
				}

			}
, 			{
				"patchline" : 				{
					"destination" : [ "obj-8", 0 ],
					"source" : [ "obj-30", 0 ]
				}

			}
, 			{
				"patchline" : 				{
					"destination" : [ "obj-30", 0 ],
					"source" : [ "obj-32", 0 ]
				}

			}
, 			{
				"patchline" : 				{
					"destination" : [ "obj-10", 0 ],
					"midpoints" : [ 479.0, 559.56109600000002, 747.083374000000049, 559.56109600000002, 747.083374000000049, 395.56109600000002, 392.333344000000011, 395.56109600000002 ],
					"source" : [ "obj-33", 0 ]
				}

			}
, 			{
				"patchline" : 				{
					"destination" : [ "obj-11", 0 ],
					"source" : [ "obj-34", 0 ]
				}

			}
, 			{
				"patchline" : 				{
					"destination" : [ "obj-19", 1 ],
					"source" : [ "obj-35", 0 ]
				}

			}
, 			{
				"patchline" : 				{
					"destination" : [ "obj-8", 0 ],
					"source" : [ "obj-36", 0 ]
				}

			}
, 			{
				"patchline" : 				{
					"destination" : [ "obj-29", 0 ],
					"source" : [ "obj-43", 1 ]
				}

			}
, 			{
				"patchline" : 				{
					"destination" : [ "obj-19", 3 ],
					"source" : [ "obj-44", 0 ]
				}

			}
, 			{
				"patchline" : 				{
					"destination" : [ "obj-9", 0 ],
					"source" : [ "obj-5", 0 ]
				}

			}
, 			{
				"patchline" : 				{
					"destination" : [ "obj-20", 0 ],
					"order" : 0,
					"source" : [ "obj-52", 0 ]
				}

			}
, 			{
				"patchline" : 				{
					"destination" : [ "obj-21", 0 ],
					"order" : 0,
					"source" : [ "obj-52", 3 ]
				}

			}
, 			{
				"patchline" : 				{
					"destination" : [ "obj-7", 0 ],
					"midpoints" : [ 331.119049000000018, 344.561097000000018, 346.833327999999995, 344.561097000000018, 346.833327999999995, 197.0, 199.5, 197.0 ],
					"source" : [ "obj-52", 4 ]
				}

			}
, 			{
				"patchline" : 				{
					"destination" : [ "obj-9", 4 ],
					"order" : 1,
					"source" : [ "obj-52", 3 ]
				}

			}
, 			{
				"patchline" : 				{
					"destination" : [ "obj-9", 3 ],
					"source" : [ "obj-52", 2 ]
				}

			}
, 			{
				"patchline" : 				{
					"destination" : [ "obj-9", 2 ],
					"order" : 1,
					"source" : [ "obj-52", 0 ]
				}

			}
, 			{
				"patchline" : 				{
					"destination" : [ "obj-52", 4 ],
					"source" : [ "obj-7", 6 ]
				}

			}
, 			{
				"patchline" : 				{
					"destination" : [ "obj-52", 3 ],
					"source" : [ "obj-7", 1 ]
				}

			}
, 			{
				"patchline" : 				{
					"destination" : [ "obj-52", 2 ],
					"source" : [ "obj-7", 0 ]
				}

			}
, 			{
				"patchline" : 				{
					"destination" : [ "obj-23", 1 ],
					"source" : [ "obj-8", 0 ]
				}

			}
, 			{
				"patchline" : 				{
					"destination" : [ "obj-48", 3 ],
					"source" : [ "obj-9", 3 ]
				}

			}
, 			{
				"patchline" : 				{
					"destination" : [ "obj-48", 1 ],
					"source" : [ "obj-9", 2 ]
				}

			}
, 			{
				"patchline" : 				{
					"destination" : [ "obj-48", 1 ],
					"source" : [ "obj-9", 0 ]
				}

			}
, 			{
				"patchline" : 				{
					"destination" : [ "obj-10", 0 ],
					"source" : [ "obj-99", 0 ]
				}

			}
 ],
		"parameters" : 		{
			"obj-99::obj-10::obj-72" : [ "toggle", "toggle", 0 ],
			"parameterbanks" : 			{

			}

		}
,
		"dependency_cache" : [ 			{
				"name" : "bs.vpl.util.nodelogic.maxpat",
				"bootpath" : "~/Arbeiten/01_projekte/150816_SPARCK/01_dev/app_sparck/sparck/patchers/vpl",
				"patcherrelativepath" : "../../vpl",
				"type" : "JSON",
				"implicit" : 1
			}
, 			{
				"name" : "bs.vpl.node.js",
				"bootpath" : "~/Arbeiten/01_projekte/150816_SPARCK/01_dev/app_sparck/sparck/javascript/vpl",
				"patcherrelativepath" : "../../../javascript/vpl",
				"type" : "TEXT",
				"implicit" : 1
			}
, 			{
				"name" : "bs.vpl.unique.js",
				"bootpath" : "~/Arbeiten/01_projekte/150816_SPARCK/01_dev/app_sparck/sparck/javascript/vpl",
				"patcherrelativepath" : "../../../javascript/vpl",
				"type" : "TEXT",
				"implicit" : 1
			}
, 			{
				"name" : "bs.gui.svg.button.maxpat",
				"bootpath" : "~/Arbeiten/01_projekte/150816_SPARCK/01_dev/app_sparck/sparck/patchers/gui",
				"patcherrelativepath" : "../../gui",
				"type" : "JSON",
				"implicit" : 1
			}
, 			{
				"name" : "bs.file.select.maxpat",
				"bootpath" : "~/Arbeiten/01_projekte/150816_SPARCK/01_dev/app_sparck/sparck/patchers/file",
				"patcherrelativepath" : "../../file",
				"type" : "JSON",
				"implicit" : 1
			}
, 			{
				"name" : "bs.util.dialog.saveas.slim.maxpat",
				"bootpath" : "~/Arbeiten/01_projekte/150816_SPARCK/01_dev/app_sparck/sparck/patchers/utils",
				"patcherrelativepath" : "../../utils",
				"type" : "JSON",
				"implicit" : 1
			}
, 			{
				"name" : "bs.util.global.keys.maxpat",
				"bootpath" : "~/Arbeiten/01_projekte/150816_SPARCK/01_dev/app_sparck/sparck/patchers/utils",
				"patcherrelativepath" : "../../utils",
				"type" : "JSON",
				"implicit" : 1
			}
, 			{
				"name" : "bs.util.win.reactive.maxpat",
				"bootpath" : "~/Arbeiten/01_projekte/150816_SPARCK/01_dev/app_sparck/sparck/patchers/utils",
				"patcherrelativepath" : "../../utils",
				"type" : "JSON",
				"implicit" : 1
			}
, 			{
				"name" : "bs.msg.receive.key.maxpat",
				"bootpath" : "~/Arbeiten/01_projekte/150816_SPARCK/01_dev/app_sparck/sparck/patchers/msg",
				"patcherrelativepath" : "../../msg",
				"type" : "JSON",
				"implicit" : 1
			}
, 			{
				"name" : "bs.vpl.util.inlet.maxpat",
				"bootpath" : "~/Arbeiten/01_projekte/150816_SPARCK/01_dev/app_sparck/sparck/patchers/vpl",
				"patcherrelativepath" : "../../vpl",
				"type" : "JSON",
				"implicit" : 1
			}
, 			{
				"name" : "bs.node.tfm.node.path.1.properties.maxpat",
				"bootpath" : "~/Arbeiten/01_projekte/150816_SPARCK/01_dev/app_sparck/sparck/patchers/nodes/transform",
				"patcherrelativepath" : ".",
				"type" : "JSON",
				"implicit" : 1
			}
, 			{
				"name" : "bs.gui.windows.pops.maxpat",
				"bootpath" : "~/Arbeiten/01_projekte/150816_SPARCK/01_dev/app_sparck/sparck/patchers/gui",
				"patcherrelativepath" : "../../gui",
				"type" : "JSON",
				"implicit" : 1
			}
, 			{
				"name" : "bs.gui.windows.pops.js",
				"bootpath" : "~/Arbeiten/01_projekte/150816_SPARCK/01_dev/app_sparck/sparck/javascript/gui",
				"patcherrelativepath" : "../../../javascript/gui",
				"type" : "TEXT",
				"implicit" : 1
			}
, 			{
				"name" : "bs.node.logo.power.png",
				"bootpath" : "~/Arbeiten/01_projekte/150816_SPARCK/01_dev/app_sparck/sparck/media",
				"patcherrelativepath" : "../../../media",
				"type" : "PNG",
				"implicit" : 1
			}
, 			{
				"name" : "bs.gui.svg.toggle.maxpat",
				"bootpath" : "~/Arbeiten/01_projekte/150816_SPARCK/01_dev/app_sparck/sparck/patchers/gui",
				"patcherrelativepath" : "../../gui",
				"type" : "JSON",
				"implicit" : 1
			}
, 			{
				"name" : "bs.gui.util.color.values.maxpat",
				"bootpath" : "~/Arbeiten/01_projekte/150816_SPARCK/01_dev/app_sparck/sparck/patchers/gui",
				"patcherrelativepath" : "../../gui",
				"type" : "JSON",
				"implicit" : 1
			}
, 			{
				"name" : "bs.rendergroup.recv.maxpat",
				"bootpath" : "~/Arbeiten/01_projekte/150816_SPARCK/01_dev/app_sparck/sparck/patchers/rendergroup",
				"patcherrelativepath" : "../../rendergroup",
				"type" : "JSON",
				"implicit" : 1
			}
, 			{
				"name" : "LayerCell.png",
				"bootpath" : "~/Arbeiten/01_projekte/150816_SPARCK/01_dev/app_sparck/sparck/media",
				"patcherrelativepath" : "../../../media",
				"type" : "PNG",
				"implicit" : 1
			}
, 			{
				"name" : "bs.rendergroup.js",
				"bootpath" : "~/Arbeiten/01_projekte/150816_SPARCK/01_dev/app_sparck/sparck/javascript/misc",
				"patcherrelativepath" : "../../../javascript/misc",
				"type" : "TEXT",
				"implicit" : 1
			}
, 			{
				"name" : "bs.node.tfm.node.path.body.maxpat",
				"bootpath" : "~/Arbeiten/01_projekte/150816_SPARCK/01_dev/app_sparck/sparck/patchers/nodes/transform",
				"patcherrelativepath" : ".",
				"type" : "JSON",
				"implicit" : 1
			}
, 			{
				"name" : "bs.anim.node.maxpat",
				"bootpath" : "~/Arbeiten/01_projekte/150816_SPARCK/01_dev/app_sparck/sparck/patchers/utils",
				"patcherrelativepath" : "../../utils",
				"type" : "JSON",
				"implicit" : 1
			}
, 			{
				"name" : "bs.msg.receive.select.maxpat",
				"bootpath" : "~/Arbeiten/01_projekte/150816_SPARCK/01_dev/app_sparck/sparck/patchers/msg",
				"patcherrelativepath" : "../../msg",
				"type" : "JSON",
				"implicit" : 1
			}
, 			{
				"name" : "bs.msg.receive.selector.js",
				"bootpath" : "~/Arbeiten/01_projekte/150816_SPARCK/01_dev/app_sparck/sparck/javascript/msg",
				"patcherrelativepath" : "../../../javascript/msg",
				"type" : "TEXT",
				"implicit" : 1
			}
, 			{
				"name" : "bs.msg.receive.mxo",
				"type" : "iLaX"
			}
, 			{
				"name" : "bs.msg.send.mxo",
				"type" : "iLaX"
			}
, 			{
				"name" : "bs.msg.receive.selector.mxo",
				"type" : "iLaX"
			}
 ],
		"autosave" : 0,
		"styles" : [ 			{
				"name" : "AudioStatus_Menu",
				"default" : 				{
					"bgfillcolor" : 					{
						"type" : "color",
						"color" : [ 0.294118, 0.313726, 0.337255, 1 ],
						"color1" : [ 0.454902, 0.462745, 0.482353, 0.0 ],
						"color2" : [ 0.290196, 0.309804, 0.301961, 1.0 ],
						"angle" : 270.0,
						"proportion" : 0.39,
						"autogradient" : 0
					}

				}
,
				"parentstyle" : "",
				"multi" : 0
			}
, 			{
				"name" : "STYLE1",
				"parentstyle" : "",
				"multi" : 0
			}
, 			{
				"name" : "jpatcher001",
				"parentstyle" : "",
				"multi" : 0
			}
 ],
		"bgcolor" : [ 0.85098, 0.85098, 0.823529, 1.0 ]
	}

}
